<?xml version="1.0" encoding="utf-8"?><svg viewBox="0 0 2000 512" xmlns="http://www.w3.org/2000/svg" xmlns:xlink="http://www.w3.org/1999/xlink"><style>:root>svg{display:none}:root>svg:target{display:block}</style><svg viewBox="0 0 20 20" id="001-dribbble" xmlns="http://www.w3.org/2000/svg"><g fill-rule="evenodd" stroke-linecap="round" stroke-linejoin="round" stroke-width="1.8" transform="translate(1 1)"><circle cx="9" cy="9" r="9"/><path d="M5.4.9c2.122 2.357 3.722 4.787 4.8 7.29 1.078 2.503 1.878 5.473 2.4 8.91"/><path d="M.201 8.085c3.49.11 6.59-.4 9.297-1.532C12.257 5.399 14.19 4.115 15.3 2.7M3.6 15.3c1.888-3.05 4.925-4.963 7.485-5.748 2.825-.866 4.305-.65 6.915.209"/></g></svg><svg viewBox="0 0 310.05 310.05" id="001-pinterest" xmlns="http://www.w3.org/2000/svg"><path d="M245.265 31.772C223.923 11.284 194.388 0 162.101 0c-49.32 0-79.654 20.217-96.416 37.176-20.658 20.9-32.504 48.651-32.504 76.139 0 34.513 14.436 61.003 38.611 70.858 1.623.665 3.256 1 4.857 1 5.1 0 9.141-3.337 10.541-8.69.816-3.071 2.707-10.647 3.529-13.936 1.76-6.495.338-9.619-3.5-14.142-6.992-8.273-10.248-18.056-10.248-30.788 0-37.818 28.16-78.011 80.352-78.011 41.412 0 67.137 23.537 67.137 61.425 0 23.909-5.15 46.051-14.504 62.35-6.5 11.325-17.93 24.825-35.477 24.825-7.588 0-14.404-3.117-18.705-8.551-4.063-5.137-5.402-11.773-3.768-18.689 1.846-7.814 4.363-15.965 6.799-23.845 4.443-14.392 8.643-27.985 8.643-38.83 0-18.55-11.404-31.014-28.375-31.014-21.568 0-38.465 21.906-38.465 49.871 0 13.715 3.645 23.973 5.295 27.912-2.717 11.512-18.865 79.953-21.928 92.859-1.771 7.534-12.44 67.039 5.219 71.784 19.841 5.331 37.576-52.623 39.381-59.172 1.463-5.326 6.582-25.465 9.719-37.845 9.578 9.226 25 15.463 40.006 15.463 28.289 0 53.73-12.73 71.637-35.843 17.367-22.418 26.932-53.664 26.932-87.978 0-26.826-11.52-53.272-31.604-72.556z"/></svg><svg viewBox="0 0 310.05 310.05" id="002-pinterest" xmlns="http://www.w3.org/2000/svg"><path d="M245.265 31.772C223.923 11.284 194.388 0 162.101 0c-49.32 0-79.654 20.217-96.416 37.176-20.658 20.9-32.504 48.651-32.504 76.139 0 34.513 14.436 61.003 38.611 70.858 1.623.665 3.256 1 4.857 1 5.1 0 9.141-3.337 10.541-8.69.816-3.071 2.707-10.647 3.529-13.936 1.76-6.495.338-9.619-3.5-14.142-6.992-8.273-10.248-18.056-10.248-30.788 0-37.818 28.16-78.011 80.352-78.011 41.412 0 67.137 23.537 67.137 61.425 0 23.909-5.15 46.051-14.504 62.35-6.5 11.325-17.93 24.825-35.477 24.825-7.588 0-14.404-3.117-18.705-8.551-4.063-5.137-5.402-11.773-3.768-18.689 1.846-7.814 4.363-15.965 6.799-23.845 4.443-14.392 8.643-27.985 8.643-38.83 0-18.55-11.404-31.014-28.375-31.014-21.568 0-38.465 21.906-38.465 49.871 0 13.715 3.645 23.973 5.295 27.912-2.717 11.512-18.865 79.953-21.928 92.859-1.771 7.534-12.44 67.039 5.219 71.784 19.841 5.331 37.576-52.623 39.381-59.172 1.463-5.326 6.582-25.465 9.719-37.845 9.578 9.226 25 15.463 40.006 15.463 28.289 0 53.73-12.73 71.637-35.843 17.367-22.418 26.932-53.664 26.932-87.978 0-26.826-11.52-53.272-31.604-72.556z"/></svg><svg viewBox="0 0 310 310" id="003-tumblr" xmlns="http://www.w3.org/2000/svg"><path d="M249.775 236.928a4.997 4.997 0 00-5.119.221c-14.15 9.295-28.469 14.007-42.557 14.007-7.678 0-14.285-1.725-20.236-5.297-4.023-2.366-6.688-5.399-8.139-9.257-1.107-2.978-2.43-10.9-2.43-31.739v-71.945h66.168a5 5 0 005-5v-47.1a5 5 0 00-5-5h-66.168V5a5 5 0 00-5-5H123.61a4.999 4.999 0 00-4.961 4.386c-1.836 14.831-5.201 27.143-10.01 36.601-4.744 9.381-11.141 17.526-19.018 24.216-7.842 6.687-17.451 11.899-28.563 15.491a5 5 0 00-3.463 4.758v42.466a5 5 0 005 5h28.168v100.237c0 14.492 1.523 25.36 4.656 33.218 3.158 7.955 8.83 15.496 16.863 22.418 7.922 6.801 17.568 12.104 28.67 15.758 10.971 3.618 23.73 5.452 37.922 5.452 12.416 0 24.141-1.269 34.85-3.772 10.73-2.514 22.779-6.91 35.811-13.065a4.999 4.999 0 002.865-4.521v-47.314a4.99 4.99 0 00-2.625-4.401z"/></svg><svg viewBox="0 -47 512.002 512" id="004-twitter" xmlns="http://www.w3.org/2000/svg"><path d="M191.012 419.043c-22.14 0-44.93-1.793-67.856-5.387-40.379-6.336-81.254-27.457-92.82-33.781L0 363.289l32.844-10.8c35.902-11.805 57.742-19.13 84.777-30.598-27.07-13.11-47.933-36.692-57.976-67.176l-7.641-23.195 6.266.957A113.939 113.939 0 0144 214.883c-12.934-19.645-19.781-43.649-18.324-64.219l1.437-20.246 12.121 4.695a113.316 113.316 0 01-10.98-30.777c-5.293-26.36-.863-54.363 12.476-78.852L51.29 6.102l14.12 16.96c44.66 53.649 101.227 85.473 168.363 94.79-2.742-18.903-.687-37.145 6.114-53.497 7.918-19.039 22.004-35.183 40.722-46.69 20.79-12.778 46-18.97 70.989-17.435 26.511 1.63 50.582 11.563 69.699 28.747 9.336-2.426 16.215-5.016 25.512-8.516 5.593-2.106 11.937-4.496 19.875-7.23l29.25-10.079-19.075 54.477a96.355 96.355 0 013.91-.254l31.235-1.414-18.461 25.23c-1.059 1.446-1.328 1.856-1.703 2.422-1.488 2.242-3.34 5.032-28.68 38.867-6.344 8.473-9.512 19.508-8.922 31.079 2.246 43.968-3.148 83.75-16.043 118.234-12.195 32.625-31.093 60.617-56.164 83.2-31.023 27.937-70.582 47.066-117.582 56.847-23.054 4.797-47.812 7.203-73.437 7.203zm0 0"/></svg><svg viewBox="0 0 174 296" id="form-arrows" xmlns="http://www.w3.org/2000/svg"><path d="M86.944.389l75.297 130.417H11.648L86.944.389zM86.945 296L11.648 165.583h150.593L86.944 296z"/></svg><svg viewBox="0 0 313 313" id="form-circle" xmlns="http://www.w3.org/2000/svg"><path fill-rule="evenodd" clip-rule="evenodd" d="M156.5 313c86.433 0 156.5-70.067 156.5-156.5S242.933 0 156.5 0 0 70.067 0 156.5 70.067 313 156.5 313zm0-17.389c76.829 0 139.111-62.282 139.111-139.111S233.329 17.389 156.5 17.389 17.389 79.67 17.389 156.5 79.67 295.611 156.5 295.611z"/><circle cx="156.5" cy="156.5" r="104.333"/></svg><svg viewBox="0 0 313 313" id="form-empty-circle" xmlns="http://www.w3.org/2000/svg"><path fill-rule="evenodd" clip-rule="evenodd" d="M156.5 313c86.433 0 156.5-70.067 156.5-156.5S242.933 0 156.5 0 0 70.067 0 156.5 70.067 313 156.5 313zm0-17.389c76.829 0 139.111-62.282 139.111-139.111S233.329 17.389 156.5 17.389 17.389 79.67 17.389 156.5 79.67 295.611 156.5 295.611z"/></svg><svg viewBox="0 0 441 441" id="form-x" xmlns="http://www.w3.org/2000/svg"><path d="M220.336 170.564l.353.353.354-.353L390.288 1.318l49.796 49.773-169.269 169.245-.353.354.353.354 169.269 169.245-49.796 49.796-169.245-169.269-.354-.353-.353.353-169.27 169.269-49.748-49.796 169.245-169.245.353-.354-.353-.354L1.318 51.067 51.09 1.318l169.246 169.246z"/></svg><svg viewBox="0 0 3070 696" id="noemi-logo" xmlns="http://www.w3.org/2000/svg"><path d="M485.331 135.438V696h-3.762L105.343 353.643l3.762 319.784H0V112.865h3.762l376.226 346.119-3.762-323.546h109.105zM861.808 165.967l.009-.005.008-.005c41.291-26.275 86.341-37.543 138.935-37.543 52.58 0 93.88 11.261 138.94 37.548 41.32 26.295 75.13 60.101 101.42 101.42 26.28 41.293 37.55 86.343 37.55 135.169 0 48.823-11.27 93.882-37.56 138.948-26.28 45.059-60.08 75.103-101.42 101.409-41.29 26.275-86.34 37.543-138.93 37.543-48.821 0-93.878-11.263-138.943-37.548-41.335-26.305-75.126-56.348-101.41-101.404-26.287-45.063-37.551-86.355-37.554-138.927 3.76-45.089 15.032-93.909 37.553-135.204 26.304-41.331 56.348-75.12 101.402-101.401zm-4.448 327.124c15.076 26.384 33.944 49.036 60.382 64.143 26.411 15.092 52.832 22.639 86.778 22.639 30.19 0 56.61-7.55 83.02-22.639 26.44-15.107 45.31-37.759 60.38-64.143 15.1-26.414 22.64-56.598 22.64-86.777 0-33.948-7.55-60.368-22.64-86.778-15.07-26.383-33.94-49.036-60.38-64.143-26.41-15.089-52.83-22.639-83.02-22.639-30.102 0-64.128 3.754-86.85 22.689l-.032.027c-22.552 18.793-45.184 37.652-60.278 64.066-15.095 26.415-22.639 56.598-22.639 86.778 0 30.179 7.544 60.363 22.639 86.777zm760.41 79.258h270.38v100.578h-371.46V135.938h363.94v100.578h-263.36v117.627h233.26v100.579h-233.26v117.627h.5zM1834.67.5l-107.99 96.816h-62.87L1723.39.5h111.28zm749.59 416.81l-176.42 247.736-168.89-232.691-.91-1.247v241.819h-100.58V114.453l269.97 386.201.41.574.41-.566 281.26-386.261v558.526h-104.34V416.036l-.91 1.274zm485.24-281.372v536.989h-104.34V135.938h104.34z"/></svg><svg viewBox="0 0 512 512" id="search" xmlns="http://www.w3.org/2000/svg"><g clip-path="url(#ka)"><path d="M373.403 339.292l-.29.344.312.324 121.857 126.737c10.117 10.524 9.782 27.302-.733 37.42l.347.36-.347-.36c-4.948 4.763-11.466 7.383-18.338 7.383-7.261 0-14.034-2.884-19.072-8.116L334.357 375.686l-.297-.309-.351.246c-34.78 24.442-75.457 37.317-118.145 37.317-113.708 0-206.22-92.513-206.22-206.22C9.344 93.012 101.856.5 215.564.5c113.707 0 206.22 92.512 206.22 206.22 0 48.668-17.125 95.416-48.381 132.572zm-4.546-132.572c0-84.528-68.765-153.293-153.293-153.293S62.271 122.192 62.271 206.72s68.765 153.293 153.293 153.293 153.293-68.765 153.293-153.293z"/></g><defs><clipPath id="ka"><path d="M0 0h512v512H0z"/></clipPath></defs></svg></svg>